<svg width="30" height="30" viewBox="0 0 30 30" fill="none" xmlns="http://www.w3.org/2000/svg">
<path d="M14.805 0.0116666L15 0C15.4082 5.38509e-05 15.8022 0.149927 16.1073 0.421192C16.4123 0.692457 16.6072 1.06625 16.655 1.47167L16.6667 1.66667V13.3333H28.3333C28.7416 13.3334 29.1356 13.4833 29.4406 13.7545C29.7457 14.0258 29.9406 14.3996 29.9883 14.805L30 15C29.9999 15.4082 29.8501 15.8022 29.5788 16.1073C29.3075 16.4123 28.9338 16.6072 28.5283 16.655L28.3333 16.6667H16.6667V28.3333C16.6666 28.7416 16.5167 29.1356 16.2455 29.4406C15.9742 29.7457 15.6004 29.9406 15.195 29.9883L15 30C14.5918 29.9999 14.1978 29.8501 13.8927 29.5788C13.5877 29.3075 13.3928 28.9338 13.345 28.5283L13.3333 28.3333V16.6667H1.66667C1.25844 16.6666 0.864438 16.5167 0.55938 16.2455C0.254322 15.9742 0.0594286 15.6004 0.0116666 15.195L0 15C5.38509e-05 14.5918 0.149927 14.1978 0.421192 13.8927C0.692457 13.5877 1.06625 13.3928 1.47167 13.345L1.66667 13.3333H13.3333V1.66667C13.3334 1.25844 13.4833 0.864438 13.7545 0.55938C14.0258 0.254322 14.3996 0.0594286 14.805 0.0116666L15 0L14.805 0.0116666Z" fill="white" fill-opacity="0.7"/>
</svg>
