<svg width="161" height="19" viewBox="0 0 161 19" fill="none" xmlns="http://www.w3.org/2000/svg">
<path d="M3.92 11.904V8.712H7.28C7.696 8.712 8.072 8.632 8.408 8.472C8.76 8.296 9.04 8.04 9.248 7.704C9.456 7.368 9.56 6.952 9.56 6.456C9.56 5.96 9.456 5.544 9.248 5.208C9.04 4.856 8.76 4.6 8.408 4.44C8.072 4.264 7.696 4.176 7.28 4.176H3.92V0.983999H8.024C9.112 0.983999 10.096 1.208 10.976 1.656C11.856 2.088 12.552 2.712 13.064 3.528C13.576 4.328 13.832 5.304 13.832 6.456C13.832 7.576 13.576 8.552 13.064 9.384C12.552 10.2 11.856 10.824 10.976 11.256C10.096 11.688 9.112 11.904 8.024 11.904H3.92ZM0.512 18V0.983999H4.808V18H0.512ZM15.7229 18V0.983999H20.0189V18H15.7229ZM19.1309 18V14.304H27.3389V18H19.1309ZM27.6703 18L34.2703 0.983999H38.4223L44.9503 18H40.4623L35.5423 3.696H37.1023L32.0623 18H27.6703ZM31.6783 15.024V11.616H41.0623V15.024H31.6783ZM49.6653 11.904L43.1613 0.983999H48.0813L53.0493 9.84H49.5933L54.5613 0.983999H59.3853L52.8333 11.904H49.6653ZM49.1613 18V10.152H53.4573V18H49.1613ZM64.9259 18.264C63.5019 18.264 62.2619 18.048 61.2059 17.616C60.1659 17.184 59.2139 16.504 58.3499 15.576L61.0619 12.84C61.6539 13.464 62.2859 13.944 62.9579 14.28C63.6299 14.6 64.3899 14.76 65.2379 14.76C65.9579 14.76 66.5099 14.64 66.8939 14.4C67.2939 14.144 67.4939 13.8 67.4939 13.368C67.4939 12.968 67.3499 12.64 67.0619 12.384C66.7739 12.112 66.3899 11.88 65.9099 11.688C65.4459 11.48 64.9259 11.288 64.3499 11.112C63.7899 10.92 63.2219 10.696 62.6459 10.44C62.0859 10.168 61.5659 9.84 61.0859 9.456C60.6219 9.072 60.2459 8.592 59.9579 8.016C59.6699 7.44 59.5259 6.728 59.5259 5.88C59.5259 4.792 59.7819 3.864 60.2939 3.096C60.8219 2.328 61.5499 1.736 62.4779 1.32C63.4059 0.903999 64.4859 0.696 65.7179 0.696C66.9499 0.696 68.0859 0.903999 69.1259 1.32C70.1659 1.736 71.0219 2.312 71.6939 3.048L68.9579 5.76C68.4459 5.248 67.9259 4.864 67.3979 4.608C66.8699 4.352 66.2939 4.224 65.6699 4.224C65.0779 4.224 64.6139 4.328 64.2779 4.536C63.9419 4.744 63.7739 5.04 63.7739 5.424C63.7739 5.808 63.9179 6.12 64.2059 6.36C64.4939 6.6 64.8699 6.816 65.3339 7.008C65.8139 7.184 66.3339 7.368 66.8939 7.56C67.4699 7.752 68.0379 7.976 68.5979 8.232C69.1579 8.488 69.6699 8.816 70.1339 9.216C70.6139 9.616 70.9979 10.12 71.2859 10.728C71.5739 11.336 71.7179 12.072 71.7179 12.936C71.7179 14.632 71.1179 15.944 69.9179 16.872C68.7339 17.8 67.0699 18.264 64.9259 18.264ZM77.4369 18V1.104H81.7329V18H77.4369ZM72.2289 4.68V0.983999H86.9409V4.68H72.2289ZM85.6546 18L92.2546 0.983999H96.4066L102.935 18H98.4466L93.5266 3.696H95.0866L90.0466 18H85.6546ZM89.6626 15.024V11.616H99.0466V15.024H89.6626ZM106.851 18V1.104H111.147V18H106.851ZM101.643 4.68V0.983999H116.355V4.68H101.643ZM118.309 18V0.983999H122.605V18H118.309ZM133.901 18.312C132.589 18.312 131.381 18.088 130.277 17.64C129.173 17.192 128.205 16.568 127.373 15.768C126.557 14.968 125.917 14.032 125.453 12.96C124.989 11.872 124.757 10.704 124.757 9.456C124.757 8.208 124.981 7.056 125.429 6C125.893 4.928 126.533 3.992 127.349 3.192C128.165 2.392 129.125 1.776 130.229 1.344C131.333 0.895999 132.541 0.671999 133.853 0.671999C135.165 0.671999 136.373 0.895999 137.477 1.344C138.581 1.776 139.541 2.392 140.357 3.192C141.173 3.992 141.805 4.928 142.253 6C142.717 7.072 142.949 8.232 142.949 9.48C142.949 10.728 142.717 11.888 142.253 12.96C141.805 14.032 141.173 14.976 140.357 15.792C139.541 16.592 138.581 17.216 137.477 17.664C136.389 18.096 135.197 18.312 133.901 18.312ZM133.853 14.472C134.813 14.472 135.645 14.264 136.349 13.848C137.053 13.432 137.597 12.848 137.981 12.096C138.365 11.344 138.557 10.464 138.557 9.456C138.557 8.72 138.445 8.048 138.221 7.44C138.013 6.832 137.701 6.312 137.285 5.88C136.869 5.432 136.373 5.088 135.797 4.848C135.221 4.608 134.573 4.488 133.853 4.488C132.893 4.488 132.061 4.696 131.357 5.112C130.653 5.512 130.109 6.088 129.725 6.84C129.341 7.592 129.149 8.464 129.149 9.456C129.149 10.224 129.253 10.92 129.461 11.544C129.685 12.152 130.005 12.68 130.421 13.128C130.837 13.56 131.333 13.896 131.909 14.136C132.485 14.36 133.133 14.472 133.853 14.472ZM145.098 18V0.983999H148.098L149.394 4.464V18H145.098ZM156.834 18L146.898 5.376L148.098 0.983999L158.058 13.608L156.834 18ZM156.834 18L155.73 14.424V0.983999H160.026V18H156.834Z" fill="url(#paint0_linear_6_78)"/>
<defs>
<linearGradient id="paint0_linear_6_78" x1="-1" y1="8.99999" x2="162" y2="9" gradientUnits="userSpaceOnUse">
<stop stop-color="#FFCC17"/>
<stop offset="0.5" stop-color="#1796CC"/>
<stop offset="1" stop-color="#E90154"/>
</linearGradient>
</defs>
</svg>
